<svg aria-roledescription="flowchart-v2" role="graphics-document document" viewBox="0 0 2936.82421875 1184" style="max-width: 2936.82px; background-color: white;" class="flowchart" xmlns:xlink="http://www.w3.org/1999/xlink" xmlns="http://www.w3.org/2000/svg" width="100%" id="my-svg"><style>#my-svg{font-family:"trebuchet ms",verdana,arial,sans-serif;font-size:16px;fill:#333;}#my-svg .error-icon{fill:#552222;}#my-svg .error-text{fill:#552222;stroke:#552222;}#my-svg .edge-thickness-normal{stroke-width:1px;}#my-svg .edge-thickness-thick{stroke-width:3.5px;}#my-svg .edge-pattern-solid{stroke-dasharray:0;}#my-svg .edge-thickness-invisible{stroke-width:0;fill:none;}#my-svg .edge-pattern-dashed{stroke-dasharray:3;}#my-svg .edge-pattern-dotted{stroke-dasharray:2;}#my-svg .marker{fill:#333333;stroke:#333333;}#my-svg .marker.cross{stroke:#333333;}#my-svg svg{font-family:"trebuchet ms",verdana,arial,sans-serif;font-size:16px;}#my-svg p{margin:0;}#my-svg .label{font-family:"trebuchet ms",verdana,arial,sans-serif;color:#333;}#my-svg .cluster-label text{fill:#333;}#my-svg .cluster-label span{color:#333;}#my-svg .cluster-label span p{background-color:transparent;}#my-svg .label text,#my-svg span{fill:#333;color:#333;}#my-svg .node rect,#my-svg .node circle,#my-svg .node ellipse,#my-svg .node polygon,#my-svg .node path{fill:#ECECFF;stroke:#9370DB;stroke-width:1px;}#my-svg .rough-node .label text,#my-svg .node .label text,#my-svg .image-shape .label,#my-svg .icon-shape .label{text-anchor:middle;}#my-svg .node .katex path{fill:#000;stroke:#000;stroke-width:1px;}#my-svg .rough-node .label,#my-svg .node .label,#my-svg .image-shape .label,#my-svg .icon-shape .label{text-align:center;}#my-svg .node.clickable{cursor:pointer;}#my-svg .root .anchor path{fill:#333333!important;stroke-width:0;stroke:#333333;}#my-svg .arrowheadPath{fill:#333333;}#my-svg .edgePath .path{stroke:#333333;stroke-width:2.0px;}#my-svg .flowchart-link{stroke:#333333;fill:none;}#my-svg .edgeLabel{background-color:rgba(232,232,232, 0.8);text-align:center;}#my-svg .edgeLabel p{background-color:rgba(232,232,232, 0.8);}#my-svg .edgeLabel rect{opacity:0.5;background-color:rgba(232,232,232, 0.8);fill:rgba(232,232,232, 0.8);}#my-svg .labelBkg{background-color:rgba(232, 232, 232, 0.5);}#my-svg .cluster rect{fill:#ffffde;stroke:#aaaa33;stroke-width:1px;}#my-svg .cluster text{fill:#333;}#my-svg .cluster span{color:#333;}#my-svg div.mermaidTooltip{position:absolute;text-align:center;max-width:200px;padding:2px;font-family:"trebuchet ms",verdana,arial,sans-serif;font-size:12px;background:hsl(80, 100%, 96.2745098039%);border:1px solid #aaaa33;border-radius:2px;pointer-events:none;z-index:100;}#my-svg .flowchartTitleText{text-anchor:middle;font-size:18px;fill:#333;}#my-svg rect.text{fill:none;stroke-width:0;}#my-svg .icon-shape,#my-svg .image-shape{background-color:rgba(232,232,232, 0.8);text-align:center;}#my-svg .icon-shape p,#my-svg .image-shape p{background-color:rgba(232,232,232, 0.8);padding:2px;}#my-svg .icon-shape rect,#my-svg .image-shape rect{opacity:0.5;background-color:rgba(232,232,232, 0.8);fill:rgba(232,232,232, 0.8);}#my-svg :root{--mermaid-font-family:"trebuchet ms",verdana,arial,sans-serif;}</style><g><marker orient="auto" markerHeight="8" markerWidth="8" markerUnits="userSpaceOnUse" refY="5" refX="5" viewBox="0 0 10 10" class="marker flowchart-v2" id="my-svg_flowchart-v2-pointEnd"><path style="stroke-width: 1; stroke-dasharray: 1, 0;" class="arrowMarkerPath" d="M 0 0 L 10 5 L 0 10 z"/></marker><marker orient="auto" markerHeight="8" markerWidth="8" markerUnits="userSpaceOnUse" refY="5" refX="4.5" viewBox="0 0 10 10" class="marker flowchart-v2" id="my-svg_flowchart-v2-pointStart"><path style="stroke-width: 1; stroke-dasharray: 1, 0;" class="arrowMarkerPath" d="M 0 5 L 10 10 L 10 0 z"/></marker><marker orient="auto" markerHeight="11" markerWidth="11" markerUnits="userSpaceOnUse" refY="5" refX="11" viewBox="0 0 10 10" class="marker flowchart-v2" id="my-svg_flowchart-v2-circleEnd"><circle style="stroke-width: 1; stroke-dasharray: 1, 0;" class="arrowMarkerPath" r="5" cy="5" cx="5"/></marker><marker orient="auto" markerHeight="11" markerWidth="11" markerUnits="userSpaceOnUse" refY="5" refX="-1" viewBox="0 0 10 10" class="marker flowchart-v2" id="my-svg_flowchart-v2-circleStart"><circle style="stroke-width: 1; stroke-dasharray: 1, 0;" class="arrowMarkerPath" r="5" cy="5" cx="5"/></marker><marker orient="auto" markerHeight="11" markerWidth="11" markerUnits="userSpaceOnUse" refY="5.2" refX="12" viewBox="0 0 11 11" class="marker cross flowchart-v2" id="my-svg_flowchart-v2-crossEnd"><path style="stroke-width: 2; stroke-dasharray: 1, 0;" class="arrowMarkerPath" d="M 1,1 l 9,9 M 10,1 l -9,9"/></marker><marker orient="auto" markerHeight="11" markerWidth="11" markerUnits="userSpaceOnUse" refY="5.2" refX="-1" viewBox="0 0 11 11" class="marker cross flowchart-v2" id="my-svg_flowchart-v2-crossStart"><path style="stroke-width: 2; stroke-dasharray: 1, 0;" class="arrowMarkerPath" d="M 1,1 l 9,9 M 10,1 l -9,9"/></marker><g class="root"><g class="clusters"><g data-look="classic" id="Runtime" class="cluster"><rect height="229" width="788.96875" y="947" x="411.98046875" style=""/><g transform="translate(729.54296875, 947)" class="cluster-label"><foreignObject height="24" width="153.84375"><div style="display: table-cell; white-space: nowrap; line-height: 1.5; max-width: 200px; text-align: center;" xmlns="http://www.w3.org/1999/xhtml"><span class="nodeLabel"><p>Runtime Environment</p></span></div></foreignObject></g></g><g data-look="classic" id="Platform_Components" class="cluster"><rect height="457" width="1288.75" y="136" x="957.0234375" style=""/><g transform="translate(1524.03125, 136)" class="cluster-label"><foreignObject height="24" width="154.734375"><div style="display: table-cell; white-space: nowrap; line-height: 1.5; max-width: 200px; text-align: center;" xmlns="http://www.w3.org/1999/xhtml"><span class="nodeLabel"><p>Platform Components</p></span></div></foreignObject></g></g><g data-look="classic" id="SDK_Contains" class="cluster"><rect height="229" width="1707.875" y="947" x="1220.94921875" style=""/><g transform="translate(2024.63671875, 947)" class="cluster-label"><foreignObject height="24" width="100.5"><div style="display: table-cell; white-space: nowrap; line-height: 1.5; max-width: 200px; text-align: center;" xmlns="http://www.w3.org/1999/xhtml"><span class="nodeLabel"><p>SDK Contains</p></span></div></foreignObject></g></g><g data-look="classic" id="MCP_Components" class="cluster"><rect height="179" width="748.96875" y="972" x="431.98046875" style=""/><g transform="translate(741.24609375, 972)" class="cluster-label"><foreignObject height="24" width="130.4375"><div style="display: table-cell; white-space: nowrap; line-height: 1.5; max-width: 200px; text-align: center;" xmlns="http://www.w3.org/1999/xhtml"><span class="nodeLabel"><p>MCP Components</p></span></div></foreignObject></g></g><g data-look="classic" id="MCP_Integration" class="cluster"><rect height="407" width="468.09375" y="161" x="1757.6796875" style=""/><g transform="translate(1934.0625, 161)" class="cluster-label"><foreignObject height="24" width="115.328125"><div style="display: table-cell; white-space: nowrap; line-height: 1.5; max-width: 200px; text-align: center;" xmlns="http://www.w3.org/1999/xhtml"><span class="nodeLabel"><p>MCP Integration</p></span></div></foreignObject></g></g><g data-look="classic" id="API" class="cluster"><rect height="179" width="613.28125" y="161" x="977.0234375" style=""/><g transform="translate(1239.203125, 161)" class="cluster-label"><foreignObject height="24" width="88.921875"><div style="display: table-cell; white-space: nowrap; line-height: 1.5; max-width: 200px; text-align: center;" xmlns="http://www.w3.org/1999/xhtml"><span class="nodeLabel"><p>Platform API</p></span></div></foreignObject></g></g></g><g class="edgePaths"><path marker-end="url(#my-svg_flowchart-v2-pointEnd)" style="" class="edge-thickness-normal edge-pattern-solid edge-thickness-normal edge-pattern-solid flowchart-link" id="L_SDK_Platform_0" d="M690.365,62L690.777,68.167C691.189,74.333,692.012,86.667,692.424,99C692.836,111.333,692.836,123.667,692.836,134C692.836,144.333,692.836,152.667,692.836,162.042C692.836,171.417,692.836,181.833,692.836,191.583C692.836,201.333,692.836,210.417,692.836,214.958L692.836,219.5"/><path marker-end="url(#my-svg_flowchart-v2-pointEnd)" style="" class="edge-thickness-normal edge-pattern-solid edge-thickness-normal edge-pattern-solid flowchart-link" id="L_Platform_CICD_1" d="M737.637,277.5L754.922,287.917C772.206,298.333,806.775,319.167,824.059,335.75C841.344,352.333,841.344,364.667,841.344,377.042C841.344,389.417,841.344,401.833,841.344,413.583C841.344,425.333,841.344,436.417,841.344,441.958L841.344,447.5"/><path marker-end="url(#my-svg_flowchart-v2-pointEnd)" style="" class="edge-thickness-normal edge-pattern-solid edge-thickness-normal edge-pattern-solid flowchart-link" id="L_CICD_GV_2" d="M841.344,505.5L841.344,515.917C841.344,526.333,841.344,547.167,841.344,561.75C841.344,576.333,841.344,584.667,841.344,595C841.344,605.333,841.344,617.667,841.344,626.917C841.344,636.167,841.344,642.333,841.344,647.833C841.344,653.333,841.344,658.167,841.344,660.583L841.344,663"/><path marker-end="url(#my-svg_flowchart-v2-pointEnd)" marker-start="url(#my-svg_flowchart-v2-pointStart)" style="" class="edge-thickness-normal edge-pattern-solid edge-thickness-normal edge-pattern-solid flowchart-link" id="L_Platform_MCP_3" d="M692.836,281.5L692.836,291.25C692.836,301,692.836,320.5,692.836,336.417C692.836,352.333,692.836,364.667,692.836,387.75C692.836,410.833,692.836,444.667,692.836,476.5C692.836,508.333,692.836,538.167,692.836,557.25C692.836,576.333,692.836,584.667,692.836,595C692.836,605.333,692.836,617.667,692.836,634.5C692.836,651.333,692.836,672.667,692.836,694C692.836,715.333,692.836,736.667,700.51,750.417C708.183,764.167,723.531,770.333,738.26,776.251C752.988,782.17,767.099,787.839,774.154,790.674L781.209,793.509"/><path marker-end="url(#my-svg_flowchart-v2-pointEnd)" style="" class="edge-thickness-normal edge-pattern-solid edge-thickness-normal edge-pattern-solid flowchart-link" id="L_SDK_DeployAPI_5" d="M735.016,42.564L792.78,51.97C850.544,61.376,966.073,80.188,1023.837,95.761C1081.602,111.333,1081.602,123.667,1081.602,134C1081.602,144.333,1081.602,152.667,1081.602,162.042C1081.602,171.417,1081.602,181.833,1081.602,191.583C1081.602,201.333,1081.602,210.417,1081.602,214.958L1081.602,219.5"/><path marker-end="url(#my-svg_flowchart-v2-pointEnd)" style="" class="edge-thickness-normal edge-pattern-solid edge-thickness-normal edge-pattern-solid flowchart-link" id="L_SDK_DeployAPI_6" d="M735.016,40.802L812.671,50.502C890.326,60.202,1045.635,79.601,1123.29,95.467C1200.945,111.333,1200.945,123.667,1200.945,134C1200.945,144.333,1200.945,152.667,1194,162.042C1187.055,171.417,1173.165,181.833,1159.808,191.85C1146.452,201.867,1133.628,211.483,1127.217,216.292L1120.805,221.1"/><path marker-end="url(#my-svg_flowchart-v2-pointEnd)" style="" class="edge-thickness-normal edge-pattern-solid edge-thickness-normal edge-pattern-solid flowchart-link" id="L_SDK_UndeployAPI_7" d="M735.016,40.03L825.789,49.858C916.563,59.686,1098.109,79.343,1188.883,95.338C1279.656,111.333,1279.656,123.667,1279.656,134C1279.656,144.333,1279.656,152.667,1279.656,162.042C1279.656,171.417,1279.656,181.833,1279.656,191.583C1279.656,201.333,1279.656,210.417,1279.656,214.958L1279.656,219.5"/><path marker-end="url(#my-svg_flowchart-v2-pointEnd)" style="" class="edge-thickness-normal edge-pattern-solid edge-thickness-normal edge-pattern-solid flowchart-link" id="L_SDK_ExecuteAPI_8" d="M735.016,38.748L859.466,48.79C983.917,58.832,1232.818,78.916,1357.268,95.125C1481.719,111.333,1481.719,123.667,1481.719,134C1481.719,144.333,1481.719,152.667,1481.719,162.042C1481.719,171.417,1481.719,181.833,1481.719,191.583C1481.719,201.333,1481.719,210.417,1481.719,214.958L1481.719,219.5"/><path marker-end="url(#my-svg_flowchart-v2-pointEnd)" style="" class="edge-thickness-normal edge-pattern-solid edge-thickness-normal edge-pattern-solid flowchart-link" id="L_DeployAPI_CICD_9" d="M1081.602,277.5L1081.602,287.917C1081.602,298.333,1081.602,319.167,1081.602,335.75C1081.602,352.333,1081.602,364.667,1066.906,377.042C1052.21,389.417,1022.819,401.833,994.042,413.991C965.265,426.148,937.102,438.046,923.021,443.994L908.939,449.943"/><path marker-end="url(#my-svg_flowchart-v2-pointEnd)" style="" class="edge-thickness-normal edge-pattern-solid edge-thickness-normal edge-pattern-solid flowchart-link" id="L_CICD_GV_10" d="M870.208,505.5L881.344,515.917C892.48,526.333,914.752,547.167,925.888,561.75C937.023,576.333,937.023,584.667,937.023,595C937.023,605.333,937.023,617.667,932.414,626.917C927.804,636.167,918.585,642.333,909.92,648.129C901.255,653.925,893.144,659.351,889.089,662.063L885.033,664.776"/><path marker-end="url(#my-svg_flowchart-v2-pointEnd)" style="" class="edge-thickness-normal edge-pattern-solid edge-thickness-normal edge-pattern-solid flowchart-link" id="L_GV_MCP_11" d="M841.344,721L841.344,727.167C841.344,733.333,841.344,745.667,841.863,754.917C842.382,764.167,843.42,770.333,844.347,775.843C845.275,781.352,846.091,786.204,846.5,788.63L846.908,791.055"/><path marker-end="url(#my-svg_flowchart-v2-pointEnd)" style="" class="edge-thickness-normal edge-pattern-solid edge-thickness-normal edge-pattern-solid flowchart-link" id="L_MCPClient_MCP_12" d="M2049.311,277.5L2075.388,287.917C2101.465,298.333,2153.619,319.167,2179.696,335.75C2205.773,352.333,2205.773,364.667,2205.773,387.75C2205.773,410.833,2205.773,444.667,2205.773,476.5C2205.773,508.333,2205.773,538.167,2205.773,557.25C2205.773,576.333,2205.773,584.667,2205.773,595C2205.773,605.333,2205.773,617.667,2205.773,634.5C2205.773,651.333,2205.773,672.667,2205.773,694C2205.773,715.333,2205.773,736.667,2099.087,752.377C1992.401,768.088,1779.029,778.176,1566.322,788.233C1353.616,798.289,1141.575,808.315,1035.555,813.327L929.535,818.34"/><path marker-end="url(#my-svg_flowchart-v2-pointEnd)" style="" class="edge-thickness-normal edge-pattern-solid edge-thickness-normal edge-pattern-solid flowchart-link" id="L_MCPClient_ToolDiscovery_13" d="M1949.432,277.5L1936.976,287.917C1924.52,298.333,1899.608,319.167,1887.151,335.75C1874.695,352.333,1874.695,364.667,1874.695,377.042C1874.695,389.417,1874.695,401.833,1874.695,413.583C1874.695,425.333,1874.695,436.417,1874.695,441.958L1874.695,447.5"/><path marker-end="url(#my-svg_flowchart-v2-pointEnd)" style="" class="edge-thickness-normal edge-pattern-solid edge-thickness-normal edge-pattern-solid flowchart-link" id="L_MCPClient_ToolExecution_14" d="M2014.005,277.5L2026.461,287.917C2038.917,298.333,2063.83,319.167,2076.286,335.75C2088.742,352.333,2088.742,364.667,2088.742,377.042C2088.742,389.417,2088.742,401.833,2088.742,413.583C2088.742,425.333,2088.742,436.417,2088.742,441.958L2088.742,447.5"/><path marker-end="url(#my-svg_flowchart-v2-pointEnd)" style="" class="edge-thickness-normal edge-pattern-solid edge-thickness-normal edge-pattern-solid flowchart-link" id="L_MCP_CustomTools_15" d="M778.695,840.187L739.796,849.822C700.897,859.458,623.099,878.729,584.2,896.531C545.301,914.333,545.301,930.667,545.301,943C545.301,955.333,545.301,963.667,545.301,973.042C545.301,982.417,545.301,992.833,545.301,1002.583C545.301,1012.333,545.301,1021.417,545.301,1025.958L545.301,1030.5"/><path marker-end="url(#my-svg_flowchart-v2-pointEnd)" style="" class="edge-thickness-normal edge-pattern-solid edge-thickness-normal edge-pattern-solid flowchart-link" id="L_MCP_CustomOrchestrator_16" d="M825.738,849L817.758,857.167C809.779,865.333,793.821,881.667,785.842,898C777.863,914.333,777.863,930.667,777.863,943C777.863,955.333,777.863,963.667,777.863,973.042C777.863,982.417,777.863,992.833,777.863,1002.583C777.863,1012.333,777.863,1021.417,777.863,1025.958L777.863,1030.5"/><path marker-end="url(#my-svg_flowchart-v2-pointEnd)" style="" class="edge-thickness-normal edge-pattern-solid edge-thickness-normal edge-pattern-solid flowchart-link" id="L_MCP_Workspace_4" d="M925.539,828.736L1051.377,840.28C1177.215,851.824,1428.891,874.912,1554.729,894.623C1680.566,914.333,1680.566,930.667,1680.566,943C1680.566,955.333,1680.566,963.667,1680.566,969.917C1680.566,976.167,1680.566,980.333,1680.566,983.833C1680.566,987.333,1680.566,990.167,1680.566,991.583L1680.566,993"/><path marker-end="url(#my-svg_flowchart-v2-pointEnd)" style="" class="edge-thickness-normal edge-pattern-solid edge-thickness-normal edge-pattern-solid flowchart-link" id="L_SDK_Environments_17" d="M642.109,42.564L584.345,51.97C526.581,61.376,411.052,80.188,353.288,95.761C295.523,111.333,295.523,123.667,295.523,134C295.523,144.333,295.523,152.667,295.523,158.917C295.523,165.167,295.523,169.333,295.523,172.833C295.523,176.333,295.523,179.167,295.523,180.583L295.523,182"/></g><g class="edgeLabels"><g transform="translate(692.8359375, 99)" class="edgeLabel"><g transform="translate(-69.359375, -12)" class="label"><foreignObject height="24" width="138.71875"><div style="display: table-cell; white-space: nowrap; line-height: 1.5; max-width: 200px; text-align: center;" class="labelBkg" xmlns="http://www.w3.org/1999/xhtml"><span class="edgeLabel"><p>Archives &amp; Deploys</p></span></div></foreignObject></g></g><g transform="translate(841.34375, 377)" class="edgeLabel"><g transform="translate(-65.8125, -12)" class="label"><foreignObject height="24" width="131.625"><div style="display: table-cell; white-space: nowrap; line-height: 1.5; max-width: 200px; text-align: center;" class="labelBkg" xmlns="http://www.w3.org/1999/xhtml"><span class="edgeLabel"><p>Deploys Container</p></span></div></foreignObject></g></g><g transform="translate(841.34375, 630)" class="edgeLabel"><g transform="translate(-31.1328125, -12)" class="label"><foreignObject height="24" width="62.265625"><div style="display: table-cell; white-space: nowrap; line-height: 1.5; max-width: 200px; text-align: center;" class="labelBkg" xmlns="http://www.w3.org/1999/xhtml"><span class="edgeLabel"><p>Spins up</p></span></div></foreignObject></g></g><g transform="translate(692.8359375, 630)" class="edgeLabel"><g transform="translate(-97.375, -12)" class="label"><foreignObject height="24" width="194.75"><div style="display: table-cell; white-space: nowrap; line-height: 1.5; max-width: 200px; text-align: center;" class="labelBkg" xmlns="http://www.w3.org/1999/xhtml"><span class="edgeLabel"><p>Communicates via Protocol</p></span></div></foreignObject></g></g><g transform="translate(1081.6015625, 99)" class="edgeLabel"><g transform="translate(-26.6796875, -12)" class="label"><foreignObject height="24" width="53.359375"><div style="display: table-cell; white-space: nowrap; line-height: 1.5; max-width: 200px; text-align: center;" class="labelBkg" xmlns="http://www.w3.org/1999/xhtml"><span class="edgeLabel"><p>Archive</p></span></div></foreignObject></g></g><g transform="translate(1200.9453125, 99)" class="edgeLabel"><g transform="translate(-24.90625, -12)" class="label"><foreignObject height="24" width="49.8125"><div style="display: table-cell; white-space: nowrap; line-height: 1.5; max-width: 200px; text-align: center;" class="labelBkg" xmlns="http://www.w3.org/1999/xhtml"><span class="edgeLabel"><p>Deploy</p></span></div></foreignObject></g></g><g transform="translate(1279.65625, 99)" class="edgeLabel"><g transform="translate(-33.8046875, -12)" class="label"><foreignObject height="24" width="67.609375"><div style="display: table-cell; white-space: nowrap; line-height: 1.5; max-width: 200px; text-align: center;" class="labelBkg" xmlns="http://www.w3.org/1999/xhtml"><span class="edgeLabel"><p>Undeploy</p></span></div></foreignObject></g></g><g transform="translate(1481.71875, 99)" class="edgeLabel"><g transform="translate(-14.671875, -12)" class="label"><foreignObject height="24" width="29.34375"><div style="display: table-cell; white-space: nowrap; line-height: 1.5; max-width: 200px; text-align: center;" class="labelBkg" xmlns="http://www.w3.org/1999/xhtml"><span class="edgeLabel"><p>Test</p></span></div></foreignObject></g></g><g transform="translate(1081.6015625, 377)" class="edgeLabel"><g transform="translate(-25.046875, -12)" class="label"><foreignObject height="24" width="50.09375"><div style="display: table-cell; white-space: nowrap; line-height: 1.5; max-width: 200px; text-align: center;" class="labelBkg" xmlns="http://www.w3.org/1999/xhtml"><span class="edgeLabel"><p>Trigger</p></span></div></foreignObject></g></g><g transform="translate(937.0234375, 630)" class="edgeLabel"><g transform="translate(-32.90625, -12)" class="label"><foreignObject height="24" width="65.8125"><div style="display: table-cell; white-space: nowrap; line-height: 1.5; max-width: 200px; text-align: center;" class="labelBkg" xmlns="http://www.w3.org/1999/xhtml"><span class="edgeLabel"><p>Provision</p></span></div></foreignObject></g></g><g transform="translate(841.34375, 758)" class="edgeLabel"><g transform="translate(-16.8984375, -12)" class="label"><foreignObject height="24" width="33.796875"><div style="display: table-cell; white-space: nowrap; line-height: 1.5; max-width: 200px; text-align: center;" class="labelBkg" xmlns="http://www.w3.org/1999/xhtml"><span class="edgeLabel"><p>Start</p></span></div></foreignObject></g></g><g transform="translate(2205.7734375, 630)" class="edgeLabel"><g transform="translate(-29.796875, -12)" class="label"><foreignObject height="24" width="59.59375"><div style="display: table-cell; white-space: nowrap; line-height: 1.5; max-width: 200px; text-align: center;" class="labelBkg" xmlns="http://www.w3.org/1999/xhtml"><span class="edgeLabel"><p>Connect</p></span></div></foreignObject></g></g><g transform="translate(1874.6953125, 377)" class="edgeLabel"><g transform="translate(-31.1171875, -12)" class="label"><foreignObject height="24" width="62.234375"><div style="display: table-cell; white-space: nowrap; line-height: 1.5; max-width: 200px; text-align: center;" class="labelBkg" xmlns="http://www.w3.org/1999/xhtml"><span class="edgeLabel"><p>Discover</p></span></div></foreignObject></g></g><g transform="translate(2088.7421875, 377)" class="edgeLabel"><g transform="translate(-28.90625, -12)" class="label"><foreignObject height="24" width="57.8125"><div style="display: table-cell; white-space: nowrap; line-height: 1.5; max-width: 200px; text-align: center;" class="labelBkg" xmlns="http://www.w3.org/1999/xhtml"><span class="edgeLabel"><p>Execute</p></span></div></foreignObject></g></g><g transform="translate(545.30078125, 898)" class="edgeLabel"><g transform="translate(-29.7890625, -12)" class="label"><foreignObject height="24" width="59.578125"><div style="display: table-cell; white-space: nowrap; line-height: 1.5; max-width: 200px; text-align: center;" class="labelBkg" xmlns="http://www.w3.org/1999/xhtml"><span class="edgeLabel"><p>Register</p></span></div></foreignObject></g></g><g transform="translate(777.86328125, 898)" class="edgeLabel"><g transform="translate(-29.7890625, -12)" class="label"><foreignObject height="24" width="59.578125"><div style="display: table-cell; white-space: nowrap; line-height: 1.5; max-width: 200px; text-align: center;" class="labelBkg" xmlns="http://www.w3.org/1999/xhtml"><span class="edgeLabel"><p>Register</p></span></div></foreignObject></g></g><g transform="translate(1680.56640625, 898)" class="edgeLabel"><g transform="translate(-100, -24)" class="label"><foreignObject height="48" width="200"><div style="display: table; white-space: break-spaces; line-height: 1.5; max-width: 200px; text-align: center; width: 200px;" class="labelBkg" xmlns="http://www.w3.org/1999/xhtml"><span class="edgeLabel"><p>Loads Runtime Components from</p></span></div></foreignObject></g></g><g transform="translate(295.5234375, 99)" class="edgeLabel"><g transform="translate(-34.6875, -12)" class="label"><foreignObject height="24" width="69.375"><div style="display: table-cell; white-space: nowrap; line-height: 1.5; max-width: 200px; text-align: center;" class="labelBkg" xmlns="http://www.w3.org/1999/xhtml"><span class="edgeLabel"><p>Configure</p></span></div></foreignObject></g></g></g><g class="nodes"><g transform="translate(0, 178)" class="root"><g class="clusters"><g data-look="classic" id="Environments" class="cluster"><rect height="129" width="575.046875" y="8" x="8" style=""/><g transform="translate(246.609375, 8)" class="cluster-label"><foreignObject height="24" width="97.828125"><div style="display: table-cell; white-space: nowrap; line-height: 1.5; max-width: 200px; text-align: center;" xmlns="http://www.w3.org/1999/xhtml"><span class="nodeLabel"><p>Environments</p></span></div></foreignObject></g></g></g><g class="edgePaths"/><g class="edgeLabels"/><g class="nodes"><g transform="translate(120.140625, 72.5)" id="flowchart-Dev-53" class="node default"><rect height="54" width="154.28125" y="-27" x="-77.140625" style="" class="basic label-container"/><g transform="translate(-47.140625, -12)" style="" class="label"><rect/><foreignObject height="24" width="94.28125"><div style="display: table-cell; white-space: nowrap; line-height: 1.5; max-width: 200px; text-align: center;" xmlns="http://www.w3.org/1999/xhtml"><span class="nodeLabel"><p>Development</p></span></div></foreignObject></g></g><g transform="translate(304.4140625, 72.5)" id="flowchart-Staging-54" class="node default"><rect height="54" width="114.265625" y="-27" x="-57.1328125" style="" class="basic label-container"/><g transform="translate(-27.1328125, -12)" style="" class="label"><rect/><foreignObject height="24" width="54.265625"><div style="display: table-cell; white-space: nowrap; line-height: 1.5; max-width: 200px; text-align: center;" xmlns="http://www.w3.org/1999/xhtml"><span class="nodeLabel"><p>Staging</p></span></div></foreignObject></g></g><g transform="translate(479.796875, 72.5)" id="flowchart-Prod-55" class="node default"><rect height="54" width="136.5" y="-27" x="-68.25" style="" class="basic label-container"/><g transform="translate(-38.25, -12)" style="" class="label"><rect/><foreignObject height="24" width="76.5"><div style="display: table-cell; white-space: nowrap; line-height: 1.5; max-width: 200px; text-align: center;" xmlns="http://www.w3.org/1999/xhtml"><span class="nodeLabel"><p>Production</p></span></div></foreignObject></g></g></g></g><g transform="translate(984.0234375, 406)" class="root"><g class="clusters"><g data-look="classic" id="Gvisor_Service" class="cluster"><rect height="129" width="730.65625" y="8" x="8" style=""/><g transform="translate(321.3125, 8)" class="cluster-label"><foreignObject height="24" width="104.03125"><div style="display: table-cell; white-space: nowrap; line-height: 1.5; max-width: 200px; text-align: center;" xmlns="http://www.w3.org/1999/xhtml"><span class="nodeLabel"><p>Gvisor Service</p></span></div></foreignObject></g></g></g><g class="edgePaths"/><g class="edgeLabels"/><g class="nodes"><g transform="translate(141.0390625, 72.5)" id="flowchart-ContainerLifecycle-23" class="node default"><rect height="54" width="196.078125" y="-27" x="-98.0390625" style="" class="basic label-container"/><g transform="translate(-68.0390625, -12)" style="" class="label"><rect/><foreignObject height="24" width="136.078125"><div style="display: table-cell; white-space: nowrap; line-height: 1.5; max-width: 200px; text-align: center;" xmlns="http://www.w3.org/1999/xhtml"><span class="nodeLabel"><p>Container Lifecycle</p></span></div></foreignObject></g></g><g transform="translate(381.78125, 72.5)" id="flowchart-HealthMonitor-24" class="node default"><rect height="54" width="185.40625" y="-27" x="-92.703125" style="" class="basic label-container"/><g transform="translate(-62.703125, -12)" style="" class="label"><rect/><foreignObject height="24" width="125.40625"><div style="display: table-cell; white-space: nowrap; line-height: 1.5; max-width: 200px; text-align: center;" xmlns="http://www.w3.org/1999/xhtml"><span class="nodeLabel"><p>Health Monitoring</p></span></div></foreignObject></g></g><g transform="translate(614.0703125, 72.5)" id="flowchart-K8sProvision-25" class="node default"><rect height="54" width="179.171875" y="-27" x="-89.5859375" style="" class="basic label-container"/><g transform="translate(-59.5859375, -12)" style="" class="label"><rect/><foreignObject height="24" width="119.171875"><div style="display: table-cell; white-space: nowrap; line-height: 1.5; max-width: 200px; text-align: center;" xmlns="http://www.w3.org/1999/xhtml"><span class="nodeLabel"><p>K8s Provisioning</p></span></div></foreignObject></g></g></g></g><g transform="translate(1247.94921875, 989)" class="root"><g class="clusters"><g data-look="classic" id="Workspace" class="cluster"><rect height="129" width="849.234375" y="8" x="8" style=""/><g transform="translate(392.75, 8)" class="cluster-label"><foreignObject height="24" width="79.734375"><div style="display: table-cell; white-space: nowrap; line-height: 1.5; max-width: 200px; text-align: center;" xmlns="http://www.w3.org/1999/xhtml"><span class="nodeLabel"><p>Workspace</p></span></div></foreignObject></g></g></g><g class="edgePaths"/><g class="edgeLabels"/><g class="nodes"><g transform="translate(138.8125, 72.5)" id="flowchart-DesignTime-13" class="node default"><rect height="54" width="191.625" y="-27" x="-95.8125" style="" class="basic label-container"/><g transform="translate(-65.8125, -12)" style="" class="label"><rect/><foreignObject height="24" width="131.625"><div style="display: table-cell; white-space: nowrap; line-height: 1.5; max-width: 200px; text-align: center;" xmlns="http://www.w3.org/1999/xhtml"><span class="nodeLabel"><p>Design Time Code</p></span></div></foreignObject></g></g><g transform="translate(365.765625, 72.5)" id="flowchart-RuntimeCode-14" class="node default"><rect height="54" width="162.28125" y="-27" x="-81.140625" style="" class="basic label-container"/><g transform="translate(-51.140625, -12)" style="" class="label"><rect/><foreignObject height="24" width="102.28125"><div style="display: table-cell; white-space: nowrap; line-height: 1.5; max-width: 200px; text-align: center;" xmlns="http://www.w3.org/1999/xhtml"><span class="nodeLabel"><p>Runtime Code</p></span></div></foreignObject></g></g><g transform="translate(560.109375, 72.5)" id="flowchart-CLITools-15" class="node default"><rect height="54" width="126.40625" y="-27" x="-63.203125" style="" class="basic label-container"/><g transform="translate(-33.203125, -12)" style="" class="label"><rect/><foreignObject height="24" width="66.40625"><div style="display: table-cell; white-space: nowrap; line-height: 1.5; max-width: 200px; text-align: center;" xmlns="http://www.w3.org/1999/xhtml"><span class="nodeLabel"><p>CLI Tools</p></span></div></foreignObject></g></g><g transform="translate(747.7734375, 72.5)" id="flowchart-BuildScripts-16" class="node default"><rect height="54" width="148.921875" y="-27" x="-74.4609375" style="" class="basic label-container"/><g transform="translate(-44.4609375, -12)" style="" class="label"><rect/><foreignObject height="24" width="88.921875"><div style="display: table-cell; white-space: nowrap; line-height: 1.5; max-width: 200px; text-align: center;" xmlns="http://www.w3.org/1999/xhtml"><span class="nodeLabel"><p>Build Scripts</p></span></div></foreignObject></g></g></g></g><g transform="translate(2147.18359375, 989)" class="root"><g class="clusters"><g data-look="classic" id="agentic_core" class="cluster"><rect height="129" width="738.640625" y="8" x="8" style=""/><g transform="translate(309.2890625, 8)" class="cluster-label"><foreignObject height="24" width="136.0625"><div style="display: table-cell; white-space: nowrap; line-height: 1.5; max-width: 200px; text-align: center;" xmlns="http://www.w3.org/1999/xhtml"><span class="nodeLabel"><p>agentic-core library</p></span></div></foreignObject></g></g></g><g class="edgePaths"/><g class="edgeLabels"/><g class="nodes"><g transform="translate(141.03125, 72.5)" id="flowchart-Models-10" class="node default"><rect height="54" width="196.0625" y="-27" x="-98.03125" style="" class="basic label-container"/><g transform="translate(-68.03125, -12)" style="" class="label"><rect/><foreignObject height="24" width="136.0625"><div style="display: table-cell; white-space: nowrap; line-height: 1.5; max-width: 200px; text-align: center;" xmlns="http://www.w3.org/1999/xhtml"><span class="nodeLabel"><p>Designtime Models</p></span></div></foreignObject></g></g><g transform="translate(400.890625, 72.5)" id="flowchart-AgentProtocol-11" class="node default"><rect height="54" width="223.65625" y="-27" x="-111.828125" style="" class="basic label-container"/><g transform="translate(-81.828125, -12)" style="" class="label"><rect/><foreignObject height="24" width="163.65625"><div style="display: table-cell; white-space: nowrap; line-height: 1.5; max-width: 200px; text-align: center;" xmlns="http://www.w3.org/1999/xhtml"><span class="nodeLabel"><p>Runtime AgentProtocol</p></span></div></foreignObject></g></g><g transform="translate(637.1796875, 72.5)" id="flowchart-PlatformAPI-12" class="node default"><rect height="54" width="148.921875" y="-27" x="-74.4609375" style="" class="basic label-container"/><g transform="translate(-44.4609375, -12)" style="" class="label"><rect/><foreignObject height="24" width="88.921875"><div style="display: table-cell; white-space: nowrap; line-height: 1.5; max-width: 200px; text-align: center;" xmlns="http://www.w3.org/1999/xhtml"><span class="nodeLabel"><p>Platform API</p></span></div></foreignObject></g></g></g></g><g transform="translate(688.5625, 35)" id="flowchart-SDK-0" class="node default"><rect height="54" width="92.90625" y="-27" x="-46.453125" style="" class="basic label-container"/><g transform="translate(-16.453125, -12)" style="" class="label"><rect/><foreignObject height="24" width="32.90625"><div style="display: table-cell; white-space: nowrap; line-height: 1.5; max-width: 200px; text-align: center;" xmlns="http://www.w3.org/1999/xhtml"><span class="nodeLabel"><p>SDK</p></span></div></foreignObject></g></g><g transform="translate(692.8359375, 250.5)" id="flowchart-Platform-1" class="node default"><rect height="54" width="119.578125" y="-27" x="-59.7890625" style="" class="basic label-container"/><g transform="translate(-29.7890625, -12)" style="" class="label"><rect/><foreignObject height="24" width="59.578125"><div style="display: table-cell; white-space: nowrap; line-height: 1.5; max-width: 200px; text-align: center;" xmlns="http://www.w3.org/1999/xhtml"><span class="nodeLabel"><p>Platform</p></span></div></foreignObject></g></g><g transform="translate(841.34375, 478.5)" id="flowchart-CICD-3" class="node default"><rect height="54" width="161.359375" y="-27" x="-80.6796875" style="" class="basic label-container"/><g transform="translate(-50.6796875, -12)" style="" class="label"><rect/><foreignObject height="24" width="101.359375"><div style="display: table-cell; white-space: nowrap; line-height: 1.5; max-width: 200px; text-align: center;" xmlns="http://www.w3.org/1999/xhtml"><span class="nodeLabel"><p>CI/CD Service</p></span></div></foreignObject></g></g><g transform="translate(841.34375, 694)" id="flowchart-GV-5" class="node default"><rect height="54" width="164.03125" y="-27" x="-82.015625" style="" class="basic label-container"/><g transform="translate(-52.015625, -12)" style="" class="label"><rect/><foreignObject height="24" width="104.03125"><div style="display: table-cell; white-space: nowrap; line-height: 1.5; max-width: 200px; text-align: center;" xmlns="http://www.w3.org/1999/xhtml"><span class="nodeLabel"><p>Gvisor Service</p></span></div></foreignObject></g></g><g transform="translate(852.1171875, 822)" id="flowchart-MCP-7" class="node default"><rect height="54" width="146.84375" y="-27" x="-73.421875" style="" class="basic label-container"/><g transform="translate(-43.421875, -12)" style="" class="label"><rect/><foreignObject height="24" width="86.84375"><div style="display: table-cell; white-space: nowrap; line-height: 1.5; max-width: 200px; text-align: center;" xmlns="http://www.w3.org/1999/xhtml"><span class="nodeLabel"><p>MCP Server</p></span></div></foreignObject></g></g><g transform="translate(1081.6015625, 250.5)" id="flowchart-DeployAPI-17" class="node default"><rect height="54" width="139.15625" y="-27" x="-69.578125" style="" class="basic label-container"/><g transform="translate(-39.578125, -12)" style="" class="label"><rect/><foreignObject height="24" width="79.15625"><div style="display: table-cell; white-space: nowrap; line-height: 1.5; max-width: 200px; text-align: center;" xmlns="http://www.w3.org/1999/xhtml"><span class="nodeLabel"><p>Deploy API</p></span></div></foreignObject></g></g><g transform="translate(1279.65625, 250.5)" id="flowchart-UndeployAPI-18" class="node default"><rect height="54" width="156.953125" y="-27" x="-78.4765625" style="" class="basic label-container"/><g transform="translate(-48.4765625, -12)" style="" class="label"><rect/><foreignObject height="24" width="96.953125"><div style="display: table-cell; white-space: nowrap; line-height: 1.5; max-width: 200px; text-align: center;" xmlns="http://www.w3.org/1999/xhtml"><span class="nodeLabel"><p>Undeploy API</p></span></div></foreignObject></g></g><g transform="translate(1481.71875, 250.5)" id="flowchart-ExecuteAPI-19" class="node default"><rect height="54" width="147.171875" y="-27" x="-73.5859375" style="" class="basic label-container"/><g transform="translate(-43.5859375, -12)" style="" class="label"><rect/><foreignObject height="24" width="87.171875"><div style="display: table-cell; white-space: nowrap; line-height: 1.5; max-width: 200px; text-align: center;" xmlns="http://www.w3.org/1999/xhtml"><span class="nodeLabel"><p>Execute API</p></span></div></foreignObject></g></g><g transform="translate(1981.71875, 250.5)" id="flowchart-MCPClient-20" class="node default"><rect height="54" width="140.625" y="-27" x="-70.3125" style="" class="basic label-container"/><g transform="translate(-40.3125, -12)" style="" class="label"><rect/><foreignObject height="24" width="80.625"><div style="display: table-cell; white-space: nowrap; line-height: 1.5; max-width: 200px; text-align: center;" xmlns="http://www.w3.org/1999/xhtml"><span class="nodeLabel"><p>MCP Client</p></span></div></foreignObject></g></g><g transform="translate(1874.6953125, 478.5)" id="flowchart-ToolDiscovery-21" class="node default"><rect height="54" width="164.03125" y="-27" x="-82.015625" style="" class="basic label-container"/><g transform="translate(-52.015625, -12)" style="" class="label"><rect/><foreignObject height="24" width="104.03125"><div style="display: table-cell; white-space: nowrap; line-height: 1.5; max-width: 200px; text-align: center;" xmlns="http://www.w3.org/1999/xhtml"><span class="nodeLabel"><p>Tool Discovery</p></span></div></foreignObject></g></g><g transform="translate(2088.7421875, 478.5)" id="flowchart-ToolExecution-22" class="node default"><rect height="54" width="164.0625" y="-27" x="-82.03125" style="" class="basic label-container"/><g transform="translate(-52.03125, -12)" style="" class="label"><rect/><foreignObject height="24" width="104.0625"><div style="display: table-cell; white-space: nowrap; line-height: 1.5; max-width: 200px; text-align: center;" xmlns="http://www.w3.org/1999/xhtml"><span class="nodeLabel"><p>Tool Execution</p></span></div></foreignObject></g></g><g transform="translate(545.30078125, 1061.5)" id="flowchart-CustomTools-26" class="node default"><rect height="54" width="156.640625" y="-27" x="-78.3203125" style="" class="basic label-container"/><g transform="translate(-48.3203125, -12)" style="" class="label"><rect/><foreignObject height="24" width="96.640625"><div style="display: table-cell; white-space: nowrap; line-height: 1.5; max-width: 200px; text-align: center;" xmlns="http://www.w3.org/1999/xhtml"><span class="nodeLabel"><p>Custom Tools</p></span></div></foreignObject></g></g><g transform="translate(777.86328125, 1061.5)" id="flowchart-CustomOrchestrator-27" class="node default"><rect height="54" width="208.484375" y="-27" x="-104.2421875" style="" class="basic label-container"/><g transform="translate(-74.2421875, -12)" style="" class="label"><rect/><foreignObject height="24" width="148.484375"><div style="display: table-cell; white-space: nowrap; line-height: 1.5; max-width: 200px; text-align: center;" xmlns="http://www.w3.org/1999/xhtml"><span class="nodeLabel"><p>Custom Orchestrator</p></span></div></foreignObject></g></g><g transform="translate(1039.02734375, 1061.5)" id="flowchart-RuntimeEnv-28" class="node default"><rect height="54" width="213.84375" y="-27" x="-106.921875" style="" class="basic label-container"/><g transform="translate(-76.921875, -12)" style="" class="label"><rect/><foreignObject height="24" width="153.84375"><div style="display: table-cell; white-space: nowrap; line-height: 1.5; max-width: 200px; text-align: center;" xmlns="http://www.w3.org/1999/xhtml"><span class="nodeLabel"><p>Runtime Environment</p></span></div></foreignObject></g></g></g></g></g></svg>